<svg width="30" height="30" viewBox="0 0 30 30" fill="none" xmlns="http://www.w3.org/2000/svg">
<path fill-rule="evenodd" clip-rule="evenodd" d="M3.6473 3.22368C3.41335 3.22368 3.22369 3.41334 3.22369 3.64731V21.9613H22.3902V16.8778C22.3902 15.9876 23.1116 15.266 24.002 15.266C24.8922 15.266 25.6139 15.9876 25.6139 16.8778V26.0373C25.6139 28.0517 23.9808 29.6846 21.9664 29.6846H3.6473C1.63295 29.6846 0 28.0517 0 26.0373V3.64731C0 1.63295 1.63295 0 3.6473 0H16.8778C17.768 0 18.4896 0.721644 18.4896 1.61184C18.4896 2.50202 17.768 3.22368 16.8778 3.22368H3.6473ZM7.71867 6.26135C6.97684 6.26135 6.37548 6.86271 6.37548 7.60455C6.37548 8.34638 6.97684 8.94775 7.71867 8.94775H11.7896C12.5314 8.94775 13.1328 8.34638 13.1328 7.60455C13.1328 6.86271 12.5314 6.26135 11.7896 6.26135H7.71867ZM6.37548 13.7678C6.37548 13.026 6.97684 12.4246 7.71867 12.4246H9.75413C10.496 12.4246 11.0973 13.026 11.0973 13.7678C11.0973 14.5096 10.496 15.111 9.75413 15.111H7.71867C6.97684 15.111 6.37548 14.5096 6.37548 13.7678ZM19.9837 15.9893C20.2003 15.9503 20.3997 15.8457 20.5549 15.6897L29.3643 6.8386C29.5657 6.63882 29.7256 6.40111 29.8345 6.13921C29.9437 5.87734 30 5.59643 30 5.31273C30 5.02902 29.9437 4.74811 29.8345 4.48622C29.7256 4.22433 29.5657 3.98664 29.3643 3.78685L27.0862 1.50878C26.8864 1.30735 26.6487 1.14747 26.3867 1.03836C26.1249 0.929253 25.844 0.873079 25.5604 0.873079C25.2765 0.873079 24.9956 0.929253 24.7338 1.03836C24.4718 1.14747 24.2341 1.30735 24.0345 1.50878L15.1896 10.3118C15.0297 10.4709 14.9239 10.6764 14.8873 10.899L14.116 15.5884C13.9956 16.3207 14.6362 16.9518 15.3667 16.8203L19.9837 15.9893Z" fill="black"/>
</svg>
