<svg width="30" height="30" viewBox="0 0 30 30" fill="none" xmlns="http://www.w3.org/2000/svg">
<path d="M9.9107 26.5178L1.33928 28.6607L3.48214 22.2321V3.48214C3.48214 2.91381 3.70791 2.36878 4.10976 1.96691C4.51163 1.56505 5.05667 1.33928 5.62499 1.33928H26.5178C27.0861 1.33928 27.6313 1.56505 28.033 1.96691C28.4348 2.36878 28.6607 2.91381 28.6607 3.48214V24.375C28.6607 24.9433 28.4348 25.4884 28.033 25.8902C27.6313 26.292 27.0861 26.5178 26.5178 26.5178H9.9107Z" fill="#ED5AB3"/>
<path fill-rule="evenodd" clip-rule="evenodd" d="M5.0568 2.91392C5.20751 2.76323 5.41189 2.67857 5.62502 2.67857H26.5179C26.7311 2.67857 26.9353 2.76323 27.0861 2.91392C27.2368 3.06463 27.3214 3.26901 27.3214 3.48214V24.375C27.3214 24.5882 27.2368 24.7924 27.0861 24.9433C26.9353 25.0939 26.7311 25.1785 26.5179 25.1785H9.91073C9.80123 25.1785 9.69214 25.192 9.58592 25.2186L3.38139 26.7696L4.75273 22.6555C4.79824 22.519 4.82145 22.3761 4.82145 22.2321V3.48214C4.82145 3.26901 4.90612 3.06463 5.0568 2.91392ZM5.62502 0C4.70149 0 3.81581 0.366867 3.16277 1.01989C2.50974 1.67292 2.14288 2.55861 2.14288 3.48214V22.0148L0.0687554 28.2373C-0.0858212 28.701 0.0245249 29.212 0.35665 29.5708C0.688773 29.9293 1.18992 30.0786 1.66414 29.9599L10.0756 27.8571H26.5179C27.4414 27.8571 28.3271 27.4903 28.98 26.8371C29.6331 26.1842 30 25.2985 30 24.375V3.48214C30 2.55861 29.6331 1.67292 28.98 1.01989C28.3271 0.366867 27.4414 0 26.5179 0H5.62502ZM15.3539 8.98201C15.6965 8.84009 16.0735 8.80295 16.4372 8.8753C16.801 8.94766 17.135 9.12623 17.3973 9.38845C17.6595 9.65067 17.8381 9.98476 17.9104 10.3485C17.9828 10.7122 17.9456 11.0892 17.8037 11.4318C17.6618 11.7744 17.4215 12.0673 17.1131 12.2733C16.8048 12.4793 16.4423 12.5893 16.0714 12.5893C15.3318 12.5893 14.7322 13.1889 14.7322 13.9286V16.0714C14.7322 16.8111 15.3318 17.4107 16.0714 17.4107C16.8111 17.4107 17.4107 16.8111 17.4107 16.0714V15.0664C17.8307 14.9372 18.232 14.7472 18.6013 14.5004C19.3501 14.0001 19.9337 13.2889 20.2784 12.4568C20.623 11.6248 20.7132 10.7092 20.5375 9.82591C20.3618 8.94261 19.9281 8.13126 19.2913 7.49442C18.6545 6.85759 17.8431 6.42391 16.9598 6.2482C16.0765 6.07251 15.1609 6.16268 14.3289 6.50734C13.4968 6.85197 12.7856 7.43562 12.2853 8.18444C11.7849 8.93328 11.5179 9.81368 11.5179 10.7143C11.5179 11.4539 12.1175 12.0536 12.8572 12.0536C13.5968 12.0536 14.1964 11.4539 14.1964 10.7143C14.1964 10.3434 14.3064 9.98092 14.5124 9.67259C14.7185 9.36423 15.0113 9.12391 15.3539 8.98201ZM16.0714 22.7678C15.0359 22.7678 14.1964 21.9283 14.1964 20.8928C14.1964 19.8573 15.0359 19.0178 16.0714 19.0178C17.107 19.0178 17.9464 19.8573 17.9464 20.8928C17.9464 21.9283 17.107 22.7678 16.0714 22.7678Z" fill="black"/>
</svg>
